<mxfile host="app.diagrams.net" modified="2024-04-25T13:58:25.689Z" agent="Mozilla/5.0 (Windows NT 10.0; Win64; x64) AppleWebKit/537.36 (KHTML, like Gecko) Chrome/124.0.0.0 Safari/537.36 Edg/124.0.0.0" etag="hWFMwdLBCPPHrQ8dRXXk" version="24.3.0" type="github">
  <diagram name="第 1 页" id="8KKGMYm-_M99mrLBJ9Gx">
    <mxGraphModel dx="1042" dy="569" grid="1" gridSize="10" guides="1" tooltips="1" connect="1" arrows="1" fold="1" page="1" pageScale="1" pageWidth="827" pageHeight="1169" math="0" shadow="0">
      <root>
        <mxCell id="0" />
        <mxCell id="1" parent="0" />
        <mxCell id="dRkNlsJSfaEs8X3FJdG3-3" value="" style="shape=umlLifeline;perimeter=lifelinePerimeter;whiteSpace=wrap;html=1;container=1;dropTarget=0;collapsible=0;recursiveResize=0;outlineConnect=0;portConstraint=eastwest;newEdgeStyle={&quot;curved&quot;:0,&quot;rounded&quot;:0};participant=umlBoundary;" vertex="1" parent="1">
          <mxGeometry x="270" y="40" width="50" height="300" as="geometry" />
        </mxCell>
        <mxCell id="dRkNlsJSfaEs8X3FJdG3-4" value="" style="group" vertex="1" connectable="0" parent="1">
          <mxGeometry x="140" y="25" width="50" height="330" as="geometry" />
        </mxCell>
        <mxCell id="dRkNlsJSfaEs8X3FJdG3-1" value="" style="shape=umlLifeline;perimeter=lifelinePerimeter;whiteSpace=wrap;html=1;container=1;dropTarget=0;collapsible=0;recursiveResize=0;outlineConnect=0;portConstraint=eastwest;newEdgeStyle={&quot;curved&quot;:0,&quot;rounded&quot;:0};participant=umlActor;size=40;" vertex="1" parent="dRkNlsJSfaEs8X3FJdG3-4">
          <mxGeometry x="15" y="30" width="20" height="300" as="geometry" />
        </mxCell>
        <mxCell id="dRkNlsJSfaEs8X3FJdG3-2" value="客户" style="text;html=1;align=center;verticalAlign=middle;resizable=0;points=[];autosize=1;strokeColor=none;fillColor=none;" vertex="1" parent="dRkNlsJSfaEs8X3FJdG3-4">
          <mxGeometry width="50" height="30" as="geometry" />
        </mxCell>
      </root>
    </mxGraphModel>
  </diagram>
</mxfile>
